<?xml version="1.0" encoding="UTF-8" standalone="no"?>
<!DOCTYPE svg PUBLIC "-//W3C//DTD SVG 1.1//EN"
 "http://www.w3.org/Graphics/SVG/1.1/DTD/svg11.dtd">
<!-- Generated by graphviz version 2.43.0 (0)
 -->
<!-- Title: aui.core/src/AUI Pages: 1 -->
<svg width="1115pt" height="94pt"
 viewBox="0.00 0.00 1115.00 94.00" xmlns="http://www.w3.org/2000/svg" xmlns:xlink="http://www.w3.org/1999/xlink">
<g id="graph0" class="graph" transform="scale(1 1) rotate(0) translate(4 90)">
<title>aui.core/src/AUI</title>
<g id="clust1" class="cluster">
<title>clusterdir_c47f58243ead995d5731ac409ace98cb</title>
<g id="a_clust1"><a xlink:href="dir_c47f58243ead995d5731ac409ace98cb.html" target="_top" xlink:title="src">
<polygon fill="#edf0f7" stroke="#7f7f7f" stroke-dasharray="5,2" points="8,-8 8,-78 1099,-78 1099,-8 8,-8"/>
<text text-anchor="middle" x="553.5" y="-66" font-family="Helvetica,sans-Serif" font-size="10.00">src</text>
</a>
</g>
</g>
<g id="clust2" class="cluster">
<title>clusterdir_e0db14f86ceec5981184f02360325ebb</title>
<g id="a_clust2"><a xlink:href="dir_e0db14f86ceec5981184f02360325ebb.html" target="_top">
<polygon fill="#edf0f7" stroke="#404040" stroke-width="2" points="16,-16 16,-51 1091,-51 1091,-16 16,-16"/>
</a>
</g>
</g>
<!-- dir_e0db14f86ceec5981184f02360325ebb -->
<g id="node1" class="node">
<title>dir_e0db14f86ceec5981184f02360325ebb</title>
<text text-anchor="middle" x="1066" y="-31" font-family="Helvetica,sans-Serif" font-size="10.00">AUI</text>
</g>
<!-- dir_b785dd04fdf944a227202b7ad8b1cb6e -->
<g id="node2" class="node">
<title>dir_b785dd04fdf944a227202b7ad8b1cb6e</title>
<g id="a_node2"><a xlink:href="dir_b785dd04fdf944a227202b7ad8b1cb6e.html" target="_top" xlink:title="Common">
<polygon fill="#a2b4d6" stroke="#404040" points="1030.5,-43 969.5,-43 969.5,-24 1030.5,-24 1030.5,-43"/>
<text text-anchor="middle" x="1000" y="-31" font-family="Helvetica,sans-Serif" font-size="10.00">Common</text>
</a>
</g>
</g>
<!-- dir_4627be52fd930a9f9a5cd63b6209510d -->
<g id="node3" class="node">
<title>dir_4627be52fd930a9f9a5cd63b6209510d</title>
<g id="a_node3"><a xlink:href="dir_4627be52fd930a9f9a5cd63b6209510d.html" target="_top" xlink:title="Geometry2D">
<polygon fill="#a2b4d6" stroke="#404040" points="951.5,-43 872.5,-43 872.5,-24 951.5,-24 951.5,-43"/>
<text text-anchor="middle" x="912" y="-31" font-family="Helvetica,sans-Serif" font-size="10.00">Geometry2D</text>
</a>
</g>
</g>
<!-- dir_5428343d1da0e80f92906cfd0a72f410 -->
<g id="node4" class="node">
<title>dir_5428343d1da0e80f92906cfd0a72f410</title>
<g id="a_node4"><a xlink:href="dir_5428343d1da0e80f92906cfd0a72f410.html" target="_top" xlink:title="i18n">
<polygon fill="#a2b4d6" stroke="#404040" points="854,-43 816,-43 816,-24 854,-24 854,-43"/>
<text text-anchor="middle" x="835" y="-31" font-family="Helvetica,sans-Serif" font-size="10.00">i18n</text>
</a>
</g>
</g>
<!-- dir_fa06689176d95db3c233d44a330ca6d9 -->
<g id="node5" class="node">
<title>dir_fa06689176d95db3c233d44a330ca6d9</title>
<g id="a_node5"><a xlink:href="dir_fa06689176d95db3c233d44a330ca6d9.html" target="_top" xlink:title="IO">
<polygon fill="#a2b4d6" stroke="#404040" points="797.5,-43 768.5,-43 768.5,-24 797.5,-24 797.5,-43"/>
<text text-anchor="middle" x="783" y="-31" font-family="Helvetica,sans-Serif" font-size="10.00">IO</text>
</a>
</g>
</g>
<!-- dir_3e54fca7f0374cde372901fbc9cdc3e6 -->
<g id="node6" class="node">
<title>dir_3e54fca7f0374cde372901fbc9cdc3e6</title>
<g id="a_node6"><a xlink:href="dir_3e54fca7f0374cde372901fbc9cdc3e6.html" target="_top" xlink:title="JNI">
<polygon fill="#a2b4d6" stroke="#404040" points="750,-43 720,-43 720,-24 750,-24 750,-43"/>
<text text-anchor="middle" x="735" y="-31" font-family="Helvetica,sans-Serif" font-size="10.00">JNI</text>
</a>
</g>
</g>
<!-- dir_6ecaebd9db60a9bab80d2725a96ebb0c -->
<g id="node7" class="node">
<title>dir_6ecaebd9db60a9bab80d2725a96ebb0c</title>
<g id="a_node7"><a xlink:href="dir_6ecaebd9db60a9bab80d2725a96ebb0c.html" target="_top" xlink:title="Logging">
<polygon fill="#a2b4d6" stroke="#404040" points="701.5,-43 646.5,-43 646.5,-24 701.5,-24 701.5,-43"/>
<text text-anchor="middle" x="674" y="-31" font-family="Helvetica,sans-Serif" font-size="10.00">Logging</text>
</a>
</g>
</g>
<!-- dir_018f31b6b5b4441c05edc7071ffc2f17 -->
<g id="node8" class="node">
<title>dir_018f31b6b5b4441c05edc7071ffc2f17</title>
<g id="a_node8"><a xlink:href="dir_018f31b6b5b4441c05edc7071ffc2f17.html" target="_top" xlink:title="Model">
<polygon fill="#a2b4d6" stroke="#404040" points="628.5,-43 581.5,-43 581.5,-24 628.5,-24 628.5,-43"/>
<text text-anchor="middle" x="605" y="-31" font-family="Helvetica,sans-Serif" font-size="10.00">Model</text>
</a>
</g>
</g>
<!-- dir_38367efa1c522dd6e3055814d074a262 -->
<g id="node9" class="node">
<title>dir_38367efa1c522dd6e3055814d074a262</title>
<g id="a_node9"><a xlink:href="dir_38367efa1c522dd6e3055814d074a262.html" target="_top" xlink:title="Performance">
<polygon fill="#a2b4d6" stroke="#404040" points="563.5,-43 484.5,-43 484.5,-24 563.5,-24 563.5,-43"/>
<text text-anchor="middle" x="524" y="-31" font-family="Helvetica,sans-Serif" font-size="10.00">Performance</text>
</a>
</g>
</g>
<!-- dir_f101f657c841f46a28f9adbedbe99ed4 -->
<g id="node10" class="node">
<title>dir_f101f657c841f46a28f9adbedbe99ed4</title>
<g id="a_node10"><a xlink:href="dir_f101f657c841f46a28f9adbedbe99ed4.html" target="_top" xlink:title="Platform">
<polygon fill="#a2b4d6" stroke="#404040" points="466.5,-43 407.5,-43 407.5,-24 466.5,-24 466.5,-43"/>
<text text-anchor="middle" x="437" y="-31" font-family="Helvetica,sans-Serif" font-size="10.00">Platform</text>
</a>
</g>
</g>
<!-- dir_37cfdb3f75d3ee04315775bc911b0604 -->
<g id="node11" class="node">
<title>dir_37cfdb3f75d3ee04315775bc911b0604</title>
<g id="a_node11"><a xlink:href="dir_37cfdb3f75d3ee04315775bc911b0604.html" target="_top" xlink:title="Reflect">
<polygon fill="#a2b4d6" stroke="#404040" points="389,-43 339,-43 339,-24 389,-24 389,-43"/>
<text text-anchor="middle" x="364" y="-31" font-family="Helvetica,sans-Serif" font-size="10.00">Reflect</text>
</a>
</g>
</g>
<!-- dir_9af0cb856b9485db0dd419f7aea0b918 -->
<g id="node12" class="node">
<title>dir_9af0cb856b9485db0dd419f7aea0b918</title>
<g id="a_node12"><a xlink:href="dir_9af0cb856b9485db0dd419f7aea0b918.html" target="_top" xlink:title="Thread">
<polygon fill="#a2b4d6" stroke="#404040" points="321,-43 271,-43 271,-24 321,-24 321,-43"/>
<text text-anchor="middle" x="296" y="-31" font-family="Helvetica,sans-Serif" font-size="10.00">Thread</text>
</a>
</g>
</g>
<!-- dir_cace8a3f0d68af04dd6c77e2077b0c3a -->
<g id="node13" class="node">
<title>dir_cace8a3f0d68af04dd6c77e2077b0c3a</title>
<g id="a_node13"><a xlink:href="dir_cace8a3f0d68af04dd6c77e2077b0c3a.html" target="_top" xlink:title="Traits">
<polygon fill="#a2b4d6" stroke="#404040" points="252.5,-43 209.5,-43 209.5,-24 252.5,-24 252.5,-43"/>
<text text-anchor="middle" x="231" y="-31" font-family="Helvetica,sans-Serif" font-size="10.00">Traits</text>
</a>
</g>
</g>
<!-- dir_cee422d644273d1e7cda05afeae8c1ef -->
<g id="node14" class="node">
<title>dir_cee422d644273d1e7cda05afeae8c1ef</title>
<g id="a_node14"><a xlink:href="dir_cee422d644273d1e7cda05afeae8c1ef.html" target="_top" xlink:title="Url">
<polygon fill="#a2b4d6" stroke="#404040" points="191.5,-43 160.5,-43 160.5,-24 191.5,-24 191.5,-43"/>
<text text-anchor="middle" x="176" y="-31" font-family="Helvetica,sans-Serif" font-size="10.00">Url</text>
</a>
</g>
</g>
<!-- dir_26160e6104e4606ea9ac295a568c37a2 -->
<g id="node15" class="node">
<title>dir_26160e6104e4606ea9ac295a568c37a2</title>
<g id="a_node15"><a xlink:href="dir_26160e6104e4606ea9ac295a568c37a2.html" target="_top" xlink:title="Util">
<polygon fill="#a2b4d6" stroke="#404040" points="142,-43 108,-43 108,-24 142,-24 142,-43"/>
<text text-anchor="middle" x="125" y="-31" font-family="Helvetica,sans-Serif" font-size="10.00">Util</text>
</a>
</g>
</g>
<!-- dir_67f0a83d9853c6023d8697658e11353f -->
<g id="node16" class="node">
<title>dir_67f0a83d9853c6023d8697658e11353f</title>
<g id="a_node16"><a xlink:href="dir_67f0a83d9853c6023d8697658e11353f.html" target="_top" xlink:title="Validation">
<polygon fill="#a2b4d6" stroke="#404040" points="89.5,-43 24.5,-43 24.5,-24 89.5,-24 89.5,-43"/>
<text text-anchor="middle" x="57" y="-31" font-family="Helvetica,sans-Serif" font-size="10.00">Validation</text>
</a>
</g>
</g>
</g>
</svg>
