<?xml version="1.0" encoding="UTF-8" standalone="no"?>
<!DOCTYPE svg PUBLIC "-//W3C//DTD SVG 1.1//EN"
 "http://www.w3.org/Graphics/SVG/1.1/DTD/svg11.dtd">
<!-- Generated by graphviz version 2.43.0 (0)
 -->
<!-- Title: aui.views/src/AUI Pages: 1 -->
<svg width="1173pt" height="94pt"
 viewBox="0.00 0.00 1173.00 94.00" xmlns="http://www.w3.org/2000/svg" xmlns:xlink="http://www.w3.org/1999/xlink">
<g id="graph0" class="graph" transform="scale(1 1) rotate(0) translate(4 90)">
<title>aui.views/src/AUI</title>
<g id="clust1" class="cluster">
<title>clusterdir_13307587c79567284d7cc768f3e568e5</title>
<g id="a_clust1"><a xlink:href="dir_13307587c79567284d7cc768f3e568e5.html" target="_top" xlink:title="src">
<polygon fill="#edf0f7" stroke="#7f7f7f" stroke-dasharray="5,2" points="8,-8 8,-78 1157,-78 1157,-8 8,-8"/>
<text text-anchor="middle" x="582.5" y="-66" font-family="Helvetica,sans-Serif" font-size="10.00">src</text>
</a>
</g>
</g>
<g id="clust2" class="cluster">
<title>clusterdir_82f393c351cbd10c9a807f78967f946a</title>
<g id="a_clust2"><a xlink:href="dir_82f393c351cbd10c9a807f78967f946a.html" target="_top">
<polygon fill="#edf0f7" stroke="#404040" stroke-width="2" points="16,-16 16,-51 1149,-51 1149,-16 16,-16"/>
</a>
</g>
</g>
<!-- dir_82f393c351cbd10c9a807f78967f946a -->
<g id="node1" class="node">
<title>dir_82f393c351cbd10c9a807f78967f946a</title>
<text text-anchor="middle" x="1124" y="-31" font-family="Helvetica,sans-Serif" font-size="10.00">AUI</text>
</g>
<!-- dir_fccf3970c6feb1a2af2ca0703c9e3e64 -->
<g id="node2" class="node">
<title>dir_fccf3970c6feb1a2af2ca0703c9e3e64</title>
<g id="a_node2"><a xlink:href="dir_fccf3970c6feb1a2af2ca0703c9e3e64.html" target="_top" xlink:title="Action">
<polygon fill="#a2b4d6" stroke="#404040" points="1088.5,-43 1041.5,-43 1041.5,-24 1088.5,-24 1088.5,-43"/>
<text text-anchor="middle" x="1065" y="-31" font-family="Helvetica,sans-Serif" font-size="10.00">Action</text>
</a>
</g>
</g>
<!-- dir_e1b6d05bc6da40524fb4ffeab93252f5 -->
<g id="node3" class="node">
<title>dir_e1b6d05bc6da40524fb4ffeab93252f5</title>
<g id="a_node3"><a xlink:href="dir_e1b6d05bc6da40524fb4ffeab93252f5.html" target="_top" xlink:title="Animator">
<polygon fill="#a2b4d6" stroke="#404040" points="1023,-43 961,-43 961,-24 1023,-24 1023,-43"/>
<text text-anchor="middle" x="992" y="-31" font-family="Helvetica,sans-Serif" font-size="10.00">Animator</text>
</a>
</g>
</g>
<!-- dir_6e5e232171e541a565e74151db62911a -->
<g id="node4" class="node">
<title>dir_6e5e232171e541a565e74151db62911a</title>
<g id="a_node4"><a xlink:href="dir_6e5e232171e541a565e74151db62911a.html" target="_top" xlink:title="ASS">
<polygon fill="#a2b4d6" stroke="#404040" points="942.5,-43 907.5,-43 907.5,-24 942.5,-24 942.5,-43"/>
<text text-anchor="middle" x="925" y="-31" font-family="Helvetica,sans-Serif" font-size="10.00">ASS</text>
</a>
</g>
</g>
<!-- dir_08c307944b301da8600f9db212768912 -->
<g id="node5" class="node">
<title>dir_08c307944b301da8600f9db212768912</title>
<g id="a_node5"><a xlink:href="dir_08c307944b301da8600f9db212768912.html" target="_top" xlink:title="Devtools">
<polygon fill="#a2b4d6" stroke="#404040" points="889,-43 829,-43 829,-24 889,-24 889,-43"/>
<text text-anchor="middle" x="859" y="-31" font-family="Helvetica,sans-Serif" font-size="10.00">Devtools</text>
</a>
</g>
</g>
<!-- dir_4be96cd91a9b4c81a3fa42e534d3495d -->
<g id="node6" class="node">
<title>dir_4be96cd91a9b4c81a3fa42e534d3495d</title>
<g id="a_node6"><a xlink:href="dir_4be96cd91a9b4c81a3fa42e534d3495d.html" target="_top" xlink:title="Enum">
<polygon fill="#a2b4d6" stroke="#404040" points="811,-43 767,-43 767,-24 811,-24 811,-43"/>
<text text-anchor="middle" x="789" y="-31" font-family="Helvetica,sans-Serif" font-size="10.00">Enum</text>
</a>
</g>
</g>
<!-- dir_8f303fabcea48631df28b719bf274293 -->
<g id="node7" class="node">
<title>dir_8f303fabcea48631df28b719bf274293</title>
<g id="a_node7"><a xlink:href="dir_8f303fabcea48631df28b719bf274293.html" target="_top" xlink:title="Event">
<polygon fill="#a2b4d6" stroke="#404040" points="749,-43 705,-43 705,-24 749,-24 749,-43"/>
<text text-anchor="middle" x="727" y="-31" font-family="Helvetica,sans-Serif" font-size="10.00">Event</text>
</a>
</g>
</g>
<!-- dir_c9cda208024783355c4366048c9e9ff4 -->
<g id="node8" class="node">
<title>dir_c9cda208024783355c4366048c9e9ff4</title>
<g id="a_node8"><a xlink:href="dir_c9cda208024783355c4366048c9e9ff4.html" target="_top" xlink:title="Font">
<polygon fill="#a2b4d6" stroke="#404040" points="687,-43 649,-43 649,-24 687,-24 687,-43"/>
<text text-anchor="middle" x="668" y="-31" font-family="Helvetica,sans-Serif" font-size="10.00">Font</text>
</a>
</g>
</g>
<!-- dir_0a82bfdd3b5506bcfbc89bfbdd685bf9 -->
<g id="node9" class="node">
<title>dir_0a82bfdd3b5506bcfbc89bfbdd685bf9</title>
<g id="a_node9"><a xlink:href="dir_0a82bfdd3b5506bcfbc89bfbdd685bf9.html" target="_top" xlink:title="GL">
<polygon fill="#a2b4d6" stroke="#404040" points="630.5,-43 601.5,-43 601.5,-24 630.5,-24 630.5,-43"/>
<text text-anchor="middle" x="616" y="-31" font-family="Helvetica,sans-Serif" font-size="10.00">GL</text>
</a>
</g>
</g>
<!-- dir_4b4087710777ac265fd1eb9181c3227d -->
<g id="node10" class="node">
<title>dir_4b4087710777ac265fd1eb9181c3227d</title>
<g id="a_node10"><a xlink:href="dir_4b4087710777ac265fd1eb9181c3227d.html" target="_top" xlink:title="Image">
<polygon fill="#a2b4d6" stroke="#404040" points="583.5,-43 536.5,-43 536.5,-24 583.5,-24 583.5,-43"/>
<text text-anchor="middle" x="560" y="-31" font-family="Helvetica,sans-Serif" font-size="10.00">Image</text>
</a>
</g>
</g>
<!-- dir_78ac52bb7567de5b1e8fa2978e80b2b7 -->
<g id="node11" class="node">
<title>dir_78ac52bb7567de5b1e8fa2978e80b2b7</title>
<g id="a_node11"><a xlink:href="dir_78ac52bb7567de5b1e8fa2978e80b2b7.html" target="_top" xlink:title="Layout">
<polygon fill="#a2b4d6" stroke="#404040" points="518,-43 468,-43 468,-24 518,-24 518,-43"/>
<text text-anchor="middle" x="493" y="-31" font-family="Helvetica,sans-Serif" font-size="10.00">Layout</text>
</a>
</g>
</g>
<!-- dir_62cd0136a3b8a0c5ac63292c3f208c50 -->
<g id="node12" class="node">
<title>dir_62cd0136a3b8a0c5ac63292c3f208c50</title>
<g id="a_node12"><a xlink:href="dir_62cd0136a3b8a0c5ac63292c3f208c50.html" target="_top" xlink:title="Platform">
<polygon fill="#a2b4d6" stroke="#404040" points="449.5,-43 390.5,-43 390.5,-24 449.5,-24 449.5,-43"/>
<text text-anchor="middle" x="420" y="-31" font-family="Helvetica,sans-Serif" font-size="10.00">Platform</text>
</a>
</g>
</g>
<!-- dir_88bc4aceb45fb2767148046e82bf64aa -->
<g id="node13" class="node">
<title>dir_88bc4aceb45fb2767148046e82bf64aa</title>
<g id="a_node13"><a xlink:href="dir_88bc4aceb45fb2767148046e82bf64aa.html" target="_top" xlink:title="Render">
<polygon fill="#a2b4d6" stroke="#404040" points="372.5,-43 321.5,-43 321.5,-24 372.5,-24 372.5,-43"/>
<text text-anchor="middle" x="347" y="-31" font-family="Helvetica,sans-Serif" font-size="10.00">Render</text>
</a>
</g>
</g>
<!-- dir_c69e8259356620ce6fba0a4655609979 -->
<g id="node14" class="node">
<title>dir_c69e8259356620ce6fba0a4655609979</title>
<g id="a_node14"><a xlink:href="dir_c69e8259356620ce6fba0a4655609979.html" target="_top" xlink:title="SL">
<polygon fill="#a2b4d6" stroke="#404040" points="303.5,-43 274.5,-43 274.5,-24 303.5,-24 303.5,-43"/>
<text text-anchor="middle" x="289" y="-31" font-family="Helvetica,sans-Serif" font-size="10.00">SL</text>
</a>
</g>
</g>
<!-- dir_5b4e2796376c1a062a3ac879b35293c3 -->
<g id="node15" class="node">
<title>dir_5b4e2796376c1a062a3ac879b35293c3</title>
<g id="a_node15"><a xlink:href="dir_5b4e2796376c1a062a3ac879b35293c3.html" target="_top" xlink:title="Software">
<polygon fill="#a2b4d6" stroke="#404040" points="256.5,-43 197.5,-43 197.5,-24 256.5,-24 256.5,-43"/>
<text text-anchor="middle" x="227" y="-31" font-family="Helvetica,sans-Serif" font-size="10.00">Software</text>
</a>
</g>
</g>
<!-- dir_9bac6e2cccaf3f094f5046a6891d6260 -->
<g id="node16" class="node">
<title>dir_9bac6e2cccaf3f094f5046a6891d6260</title>
<g id="a_node16"><a xlink:href="dir_9bac6e2cccaf3f094f5046a6891d6260.html" target="_top" xlink:title="Traits">
<polygon fill="#a2b4d6" stroke="#404040" points="179.5,-43 136.5,-43 136.5,-24 179.5,-24 179.5,-43"/>
<text text-anchor="middle" x="158" y="-31" font-family="Helvetica,sans-Serif" font-size="10.00">Traits</text>
</a>
</g>
</g>
<!-- dir_0e7d9c73069b6ff4e10645cfbf8b2369 -->
<g id="node17" class="node">
<title>dir_0e7d9c73069b6ff4e10645cfbf8b2369</title>
<g id="a_node17"><a xlink:href="dir_0e7d9c73069b6ff4e10645cfbf8b2369.html" target="_top" xlink:title="Util">
<polygon fill="#a2b4d6" stroke="#404040" points="118,-43 84,-43 84,-24 118,-24 118,-43"/>
<text text-anchor="middle" x="101" y="-31" font-family="Helvetica,sans-Serif" font-size="10.00">Util</text>
</a>
</g>
</g>
<!-- dir_1c7e3205a94c1df5e495da30b5d09454 -->
<g id="node18" class="node">
<title>dir_1c7e3205a94c1df5e495da30b5d09454</title>
<g id="a_node18"><a xlink:href="dir_1c7e3205a94c1df5e495da30b5d09454.html" target="_top" xlink:title="View">
<polygon fill="#a2b4d6" stroke="#404040" points="65.5,-43 24.5,-43 24.5,-24 65.5,-24 65.5,-43"/>
<text text-anchor="middle" x="45" y="-31" font-family="Helvetica,sans-Serif" font-size="10.00">View</text>
</a>
</g>
</g>
</g>
</svg>
