<!DOCTYPE svg PUBLIC "-//W3C//DTD SVG 1.1//EN"
 "http://www.w3.org/Graphics/SVG/1.1/DTD/svg11.dtd">
<svg version="1.1"
 width="600px" height="516px"
 viewBox="0 0 600 516"
 xmlns="http://www.w3.org/2000/svg" shape-rendering="crispEdges"
 stroke-width="1" text-rendering="geometricPrecision">
<polygon fill="white" points="123,7 175,7 175,16 123,16"/>
<text x="150" y="16" textLength="50" font-family="Helvetica" font-size="12" fill="black" text-anchor="middle">

Your App
</text>
<polygon fill="white" points="423,7 475,7 475,16 423,16"/>
<text x="450" y="16" textLength="51" font-family="Helvetica" font-size="12" fill="blue" text-anchor="middle">

AUpdater
</text>
<line x1="150" y1="22" x2="150" y2="50" stroke="black"/>
<line x1="450" y1="22" x2="450" y2="50" stroke="black"/>
<line x1="150" y1="33" x2="450" y2="33" stroke="black"/>
<line x1="450" y1="33" x2="440" y2="39" stroke="black"/>
<polygon fill="white" points="252,23 347,23 347,32 252,32"/>
<text x="253" y="32" textLength="93" font-family="Helvetica" font-size="12" fill="blue">
handleStartup(...)
</text>
<line x1="150" y1="50" x2="150" y2="78" stroke="black"/>
<line x1="450" y1="50" x2="450" y2="78" stroke="black"/>
<line x1="450" y1="61" x2="150" y2="61" stroke="black"/>
<line x1="150" y1="61" x2="160" y2="67" stroke="black"/>
<polygon fill="white" points="220,51 378,51 378,60 220,60"/>
<text x="221" y="60" textLength="156" font-family="Helvetica" font-size="12" fill="blue">
status = AUpdater::StatusIdle
</text>
<line x1="150" y1="78" x2="150" y2="106" stroke="black"/>
<line x1="450" y1="78" x2="450" y2="106" stroke="black"/>
<line x1="450" y1="89" x2="150" y2="89" stroke="black"/>
<line x1="150" y1="89" x2="160" y2="95" stroke="black"/>
<polygon fill="white" points="268,79 331,79 331,88 268,88"/>
<text x="269" y="88" textLength="61" font-family="Helvetica" font-size="12" fill="black">
control flow
</text>
<line x1="150" y1="106" x2="150" y2="123" stroke="black"/>
<line x1="450" y1="106" x2="450" y2="123" stroke="black"/>
<line x1="75" y1="111" x2="525" y2="111" stroke="black" stroke-dasharray="2,2"/>
<polygon fill="white" points="242,107 357,107 357,116 242,116"/>
<text x="243" y="116" textLength="113" font-family="Helvetica" font-size="12" fill="black">
App Normal Lifecycle
</text>
<line x1="150" y1="123" x2="150" y2="140" stroke="black" stroke-dasharray="2,2"/>
<line x1="450" y1="123" x2="450" y2="140" stroke="black" stroke-dasharray="2,2"/>
<line x1="150" y1="140" x2="150" y2="168" stroke="black"/>
<line x1="450" y1="140" x2="450" y2="168" stroke="black"/>
<line x1="150" y1="151" x2="450" y2="151" stroke="black"/>
<line x1="450" y1="151" x2="440" y2="157" stroke="black"/>
<polygon fill="white" points="247,141 351,141 351,150 247,150"/>
<text x="248" y="150" textLength="102" font-family="Helvetica" font-size="12" fill="blue">
checkForUpdates()
</text>
<line x1="150" y1="168" x2="150" y2="196" stroke="black"/>
<line x1="450" y1="168" x2="450" y2="196" stroke="black"/>
<line x1="450" y1="179" x2="150" y2="179" stroke="black"/>
<line x1="150" y1="179" x2="160" y2="185" stroke="black"/>
<polygon fill="white" points="173,169 425,169 425,178 173,178"/>
<text x="174" y="178" textLength="250" font-family="Helvetica" font-size="12" fill="blue">
status = AUpdater::StatusCheckingForUpdates
</text>
<line x1="150" y1="196" x2="150" y2="224" stroke="black"/>
<line x1="450" y1="196" x2="450" y2="224" stroke="black"/>
<line x1="450" y1="207" x2="150" y2="207" stroke="black"/>
<line x1="150" y1="207" x2="160" y2="213" stroke="black"/>
<polygon fill="white" points="268,197 331,197 331,206 268,206"/>
<text x="269" y="206" textLength="61" font-family="Helvetica" font-size="12" fill="black">
control flow
</text>
<line x1="150" y1="224" x2="150" y2="252" stroke="black"/>
<line x1="450" y1="224" x2="450" y2="252" stroke="black"/>
<polygon fill="white" points="308,224 592,224 592,246 308,246"/>
<line x1="308" y1="224" x2="592" y2="224" stroke="black"/>
<line x1="308" y1="246" x2="592" y2="246" stroke="black"/>
<line x1="308" y1="224" x2="308" y2="246" stroke="black"/>
<line x1="592" y1="224" x2="592" y2="246" stroke="black"/>
<polygon fill="white" points="386,231 513,231 513,240 386,240"/>
<text x="387" y="240" textLength="125" font-family="Helvetica" font-size="12" fill="blue">
checkForUpdatesImpl()
</text>
<line x1="150" y1="252" x2="150" y2="280" stroke="black"/>
<line x1="450" y1="252" x2="450" y2="280" stroke="black"/>
<line x1="450" y1="263" x2="150" y2="263" stroke="black"/>
<line x1="150" y1="263" x2="160" y2="269" stroke="black"/>
<polygon fill="white" points="220,253 378,253 378,262 220,262"/>
<text x="221" y="262" textLength="156" font-family="Helvetica" font-size="12" fill="blue">
status = AUpdater::StatusIdle
</text>
<line x1="150" y1="280" x2="150" y2="297" stroke="black" stroke-dasharray="2,2"/>
<line x1="450" y1="280" x2="450" y2="297" stroke="black" stroke-dasharray="2,2"/>
<line x1="150" y1="297" x2="150" y2="314" stroke="black"/>
<line x1="450" y1="297" x2="450" y2="314" stroke="black"/>
<line x1="75" y1="302" x2="525" y2="302" stroke="black" stroke-dasharray="2,2"/>
<polygon fill="white" points="252,298 347,298 347,307 252,307"/>
<text x="253" y="307" textLength="93" font-family="Helvetica" font-size="12" fill="black">
Update published
</text>
<line x1="150" y1="314" x2="150" y2="331" stroke="black" stroke-dasharray="2,2"/>
<line x1="450" y1="314" x2="450" y2="331" stroke="black" stroke-dasharray="2,2"/>
<line x1="150" y1="331" x2="150" y2="359" stroke="black"/>
<line x1="450" y1="331" x2="450" y2="359" stroke="black"/>
<line x1="150" y1="342" x2="450" y2="342" stroke="black"/>
<line x1="450" y1="342" x2="440" y2="348" stroke="black"/>
<polygon fill="white" points="247,332 351,332 351,341 247,341"/>
<text x="248" y="341" textLength="102" font-family="Helvetica" font-size="12" fill="blue">
checkForUpdates()
</text>
<line x1="150" y1="359" x2="150" y2="387" stroke="black"/>
<line x1="450" y1="359" x2="450" y2="387" stroke="black"/>
<line x1="450" y1="370" x2="150" y2="370" stroke="black"/>
<line x1="150" y1="370" x2="160" y2="376" stroke="black"/>
<polygon fill="white" points="173,360 425,360 425,369 173,369"/>
<text x="174" y="369" textLength="250" font-family="Helvetica" font-size="12" fill="blue">
status = AUpdater::StatusCheckingForUpdates
</text>
<line x1="150" y1="387" x2="150" y2="415" stroke="black"/>
<line x1="450" y1="387" x2="450" y2="415" stroke="black"/>
<line x1="450" y1="398" x2="150" y2="398" stroke="black"/>
<line x1="150" y1="398" x2="160" y2="404" stroke="black"/>
<polygon fill="white" points="268,388 331,388 331,397 268,397"/>
<text x="269" y="397" textLength="61" font-family="Helvetica" font-size="12" fill="black">
control flow
</text>
<line x1="150" y1="415" x2="150" y2="443" stroke="black"/>
<line x1="450" y1="415" x2="450" y2="443" stroke="black"/>
<polygon fill="white" points="308,415 592,415 592,437 308,437"/>
<line x1="308" y1="415" x2="592" y2="415" stroke="black"/>
<line x1="308" y1="437" x2="592" y2="437" stroke="black"/>
<line x1="308" y1="415" x2="308" y2="437" stroke="black"/>
<line x1="592" y1="415" x2="592" y2="437" stroke="black"/>
<polygon fill="white" points="386,422 513,422 513,431 386,431"/>
<text x="387" y="431" textLength="125" font-family="Helvetica" font-size="12" fill="blue">
checkForUpdatesImpl()
</text>
<line x1="150" y1="443" x2="150" y2="471" stroke="black"/>
<line x1="450" y1="443" x2="450" y2="471" stroke="black"/>
<polygon fill="white" points="308,443 592,443 592,465 308,465"/>
<line x1="308" y1="443" x2="592" y2="443" stroke="black"/>
<line x1="308" y1="465" x2="592" y2="465" stroke="black"/>
<line x1="308" y1="443" x2="308" y2="465" stroke="black"/>
<line x1="592" y1="443" x2="592" y2="465" stroke="black"/>
<polygon fill="white" points="401,450 498,450 498,459 401,459"/>
<text x="402" y="459" textLength="95" font-family="Helvetica" font-size="12" fill="black">
update was found
</text>
<line x1="150" y1="471" x2="150" y2="499" stroke="black"/>
<line x1="450" y1="471" x2="450" y2="499" stroke="black"/>
<line x1="450" y1="482" x2="150" y2="482" stroke="black"/>
<line x1="150" y1="482" x2="160" y2="488" stroke="black"/>
<polygon fill="white" points="220,472 378,472 378,481 220,481"/>
<text x="221" y="481" textLength="156" font-family="Helvetica" font-size="12" fill="blue">
status = AUpdater::StatusIdle
</text>
<line x1="150" y1="499" x2="150" y2="516" stroke="black" stroke-dasharray="2,2"/>
<line x1="450" y1="499" x2="450" y2="516" stroke="black" stroke-dasharray="2,2"/>
<line x1="150" y1="510" x2="150" y2="516" stroke="black"/>
<line x1="450" y1="510" x2="450" y2="516" stroke="black"/>
</svg>
