<!DOCTYPE svg PUBLIC "-//W3C//DTD SVG 1.1//EN"
 "http://www.w3.org/Graphics/SVG/1.1/DTD/svg11.dtd">
<svg version="1.1"
 width="600px" height="185px"
 viewBox="0 0 600 185"
 xmlns="http://www.w3.org/2000/svg" shape-rendering="crispEdges"
 stroke-width="1" text-rendering="geometricPrecision">
<polygon fill="white" points="123,7 175,7 175,16 123,16"/>
<text x="150" y="16" textLength="50" font-family="Helvetica" font-size="12" fill="black" text-anchor="middle">

Your App
</text>
<polygon fill="white" points="423,7 475,7 475,16 423,16"/>
<text x="450" y="16" textLength="51" font-family="Helvetica" font-size="12" fill="blue" text-anchor="middle">

AUpdater
</text>
<line x1="150" y1="22" x2="150" y2="39" stroke="black" stroke-dasharray="2,2"/>
<line x1="450" y1="22" x2="450" y2="39" stroke="black" stroke-dasharray="2,2"/>
<line x1="150" y1="39" x2="150" y2="67" stroke="black"/>
<line x1="450" y1="39" x2="450" y2="67" stroke="black"/>
<line x1="150" y1="50" x2="450" y2="50" stroke="black"/>
<line x1="450" y1="50" x2="440" y2="56" stroke="black"/>
<polygon fill="white" points="249,40 349,40 349,49 249,49"/>
<text x="250" y="49" textLength="98" font-family="Helvetica" font-size="12" fill="blue">
downloadUpdate()
</text>
<line x1="150" y1="67" x2="150" y2="95" stroke="black"/>
<line x1="450" y1="67" x2="450" y2="95" stroke="black"/>
<line x1="450" y1="78" x2="150" y2="78" stroke="black"/>
<line x1="150" y1="78" x2="160" y2="84" stroke="black"/>
<polygon fill="white" points="195,68 403,68 403,77 195,77"/>
<text x="196" y="77" textLength="206" font-family="Helvetica" font-size="12" fill="blue">
status = AUpdater::StatusDownloading
</text>
<line x1="150" y1="95" x2="150" y2="123" stroke="black"/>
<line x1="450" y1="95" x2="450" y2="123" stroke="black"/>
<polygon fill="white" points="308,95 592,95 592,117 308,117"/>
<line x1="308" y1="95" x2="592" y2="95" stroke="black"/>
<line x1="308" y1="117" x2="592" y2="117" stroke="black"/>
<line x1="308" y1="95" x2="308" y2="117" stroke="black"/>
<line x1="592" y1="95" x2="592" y2="117" stroke="black"/>
<polygon fill="white" points="388,102 511,102 511,111 388,111"/>
<text x="389" y="111" textLength="121" font-family="Helvetica" font-size="12" fill="blue">
downloadUpdateImpl()
</text>
<line x1="150" y1="123" x2="150" y2="151" stroke="black"/>
<line x1="450" y1="123" x2="450" y2="151" stroke="black"/>
<line x1="450" y1="134" x2="150" y2="134" stroke="black"/>
<line x1="150" y1="134" x2="160" y2="140" stroke="black"/>
<polygon fill="white" points="156,124 443,124 443,133 156,133"/>
<text x="157" y="133" textLength="285" font-family="Helvetica" font-size="12" fill="blue">
status = AUpdater::StatusWaitingForApplyAndRestart
</text>
<line x1="150" y1="151" x2="150" y2="168" stroke="black"/>
<line x1="450" y1="151" x2="450" y2="168" stroke="black"/>
<line x1="75" y1="156" x2="525" y2="156" stroke="black" stroke-dasharray="2,2"/>
<polygon fill="white" points="207,152 391,152 391,161 207,161"/>
<text x="208" y="161" textLength="182" font-family="Helvetica" font-size="12" fill="black">
Your App Prompts User to Update
</text>
<line x1="150" y1="168" x2="150" y2="185" stroke="black" stroke-dasharray="2,2"/>
<line x1="450" y1="168" x2="450" y2="185" stroke="black" stroke-dasharray="2,2"/>
<line x1="150" y1="179" x2="150" y2="185" stroke="black"/>
<line x1="450" y1="179" x2="450" y2="185" stroke="black"/>
</svg>
