<!DOCTYPE svg PUBLIC "-//W3C//DTD SVG 1.1//EN"
 "http://www.w3.org/Graphics/SVG/1.1/DTD/svg11.dtd">
<svg version="1.1"
 width="600px" height="431px"
 viewBox="0 0 600 431"
 xmlns="http://www.w3.org/2000/svg" shape-rendering="crispEdges"
 stroke-width="1" text-rendering="geometricPrecision">
<polygon fill="white" points="48,7 100,7 100,16 48,16"/>
<text x="75" y="16" textLength="50" font-family="Helvetica" font-size="12" fill="black" text-anchor="middle">

Your App
</text>
<polygon fill="white" points="198,7 250,7 250,16 198,16"/>
<text x="225" y="16" textLength="51" font-family="Helvetica" font-size="12" fill="blue" text-anchor="middle">

AUpdater
</text>
<polygon fill="white" points="307,7 441,7 441,16 307,16"/>
<text x="375" y="16" textLength="133" font-family="Helvetica" font-size="12" fill="black" text-anchor="middle">

Newer Copy of Your App
</text>
<polygon fill="white" points="464,7 584,7 584,16 464,16"/>
<text x="525" y="16" textLength="119" font-family="Helvetica" font-size="12" fill="blue" text-anchor="middle">

AUpdater in App Copy
</text>
<line x1="75" y1="22" x2="75" y2="50" stroke="black"/>
<line x1="225" y1="22" x2="225" y2="50" stroke="black"/>
<line x1="375" y1="22" x2="375" y2="50" stroke="black"/>
<line x1="525" y1="22" x2="525" y2="50" stroke="black"/>
<line x1="75" y1="32" x2="225" y2="32" stroke="black"/>
<line x1="75" y1="34" x2="225" y2="34" stroke="black"/>
<polygon fill="black" points="225,33 215,39 215,27"/>
<polygon fill="white" points="81,23 218,23 218,32 81,32"/>
<text x="82" y="32" textLength="135" font-family="Helvetica" font-size="12" fill="blue">
applyUpdateAndRestart()
</text>
<line x1="75" y1="50" x2="75" y2="78" stroke="black"/>
<line x1="225" y1="50" x2="225" y2="78" stroke="black"/>
<line x1="375" y1="50" x2="375" y2="78" stroke="black"/>
<line x1="525" y1="50" x2="525" y2="78" stroke="black"/>
<line x1="225" y1="60" x2="375" y2="60" stroke="black"/>
<line x1="225" y1="62" x2="375" y2="62" stroke="black"/>
<polygon fill="black" points="375,61 365,67 365,55"/>
<polygon fill="white" points="234,51 365,51 365,60 234,60"/>
<text x="235" y="60" textLength="129" font-family="Helvetica" font-size="12" fill="black">
Execute with update arg
</text>
<line x1="75" y1="78" x2="75" y2="106" stroke="black"/>
<line x1="225" y1="78" x2="225" y2="106" stroke="black"/>
<line x1="375" y1="78" x2="375" y2="106" stroke="black"/>
<line x1="525" y1="78" x2="525" y2="106" stroke="black"/>
<polygon fill="white" points="158,78 292,78 292,100 158,100"/>
<line x1="158" y1="78" x2="292" y2="78" stroke="black"/>
<line x1="158" y1="100" x2="292" y2="100" stroke="black"/>
<line x1="158" y1="78" x2="158" y2="100" stroke="black"/>
<line x1="292" y1="78" x2="292" y2="100" stroke="black"/>
<polygon fill="white" points="207,85 242,85 242,94 207,94"/>
<text x="208" y="94" textLength="33" font-family="Helvetica" font-size="12" fill="black">
exit(0)
</text>
<line x1="75" y1="106" x2="75" y2="134" stroke="black"/>
<line x1="225" y1="106" x2="225" y2="134" stroke="black"/>
<line x1="375" y1="106" x2="375" y2="134" stroke="black"/>
<line x1="525" y1="106" x2="525" y2="134" stroke="black"/>
<polygon fill="white" points="8,106 292,106 292,128 8,128"/>
<line x1="8" y1="106" x2="292" y2="106" stroke="black"/>
<line x1="8" y1="128" x2="292" y2="128" stroke="black"/>
<line x1="8" y1="106" x2="8" y2="128" stroke="black"/>
<line x1="292" y1="106" x2="292" y2="128" stroke="black"/>
<polygon fill="white" points="102,113 196,113 196,122 102,122"/>
<text x="103" y="122" textLength="92" font-family="Helvetica" font-size="12" fill="black">
Process Finished
</text>
<line x1="75" y1="134" x2="75" y2="162" stroke="black"/>
<line x1="225" y1="134" x2="225" y2="162" stroke="black"/>
<line x1="375" y1="134" x2="375" y2="162" stroke="black"/>
<line x1="525" y1="134" x2="525" y2="162" stroke="black"/>
<polygon fill="white" points="308,134 592,134 592,156 308,156"/>
<line x1="308" y1="134" x2="592" y2="134" stroke="black"/>
<line x1="308" y1="156" x2="592" y2="156" stroke="black"/>
<line x1="308" y1="134" x2="308" y2="156" stroke="black"/>
<line x1="592" y1="134" x2="592" y2="156" stroke="black"/>
<polygon fill="white" points="406,141 493,141 493,150 406,150"/>
<text x="407" y="150" textLength="85" font-family="Helvetica" font-size="12" fill="black">
Process Started
</text>
<line x1="75" y1="162" x2="75" y2="190" stroke="black"/>
<line x1="225" y1="162" x2="225" y2="190" stroke="black"/>
<line x1="375" y1="162" x2="375" y2="190" stroke="black"/>
<line x1="525" y1="162" x2="525" y2="190" stroke="black"/>
<line x1="375" y1="173" x2="525" y2="173" stroke="black"/>
<line x1="525" y1="173" x2="515" y2="179" stroke="black"/>
<polygon fill="white" points="411,163 488,163 488,172 411,172"/>
<text x="412" y="172" textLength="75" font-family="Helvetica" font-size="12" fill="blue">
handleStartup
</text>
<line x1="75" y1="190" x2="75" y2="218" stroke="black"/>
<line x1="225" y1="190" x2="225" y2="218" stroke="black"/>
<line x1="375" y1="190" x2="375" y2="218" stroke="black"/>
<line x1="525" y1="190" x2="525" y2="218" stroke="black"/>
<polygon fill="white" points="458,190 592,190 592,212 458,212"/>
<line x1="458" y1="190" x2="592" y2="190" stroke="black"/>
<line x1="458" y1="212" x2="592" y2="212" stroke="black"/>
<line x1="458" y1="190" x2="458" y2="212" stroke="black"/>
<line x1="592" y1="190" x2="592" y2="212" stroke="black"/>
<polygon fill="white" points="464,191 585,191 585,200 464,200"/>
<text x="465" y="200" textLength="119" font-family="Helvetica" font-size="12" fill="blue">
AUpdater::deployUpd-
</text>
<polygon fill="white" points="506,202 543,202 543,211 506,211"/>
<text x="507" y="211" textLength="35" font-family="Helvetica" font-size="12" fill="blue">
ate(...)
</text>
<line x1="75" y1="218" x2="75" y2="246" stroke="black"/>
<line x1="225" y1="218" x2="225" y2="246" stroke="black"/>
<line x1="375" y1="218" x2="375" y2="246" stroke="black"/>
<line x1="525" y1="218" x2="525" y2="246" stroke="black"/>
<line x1="525" y1="228" x2="75" y2="228" stroke="black"/>
<line x1="525" y1="230" x2="75" y2="230" stroke="black"/>
<polygon fill="black" points="75,229 85,235 85,223"/>
<polygon fill="white" points="277,219 322,219 322,228 277,228"/>
<text x="278" y="228" textLength="43" font-family="Helvetica" font-size="12" fill="black">
Execute
</text>
<line x1="75" y1="246" x2="75" y2="274" stroke="black"/>
<line x1="225" y1="246" x2="225" y2="274" stroke="black"/>
<line x1="375" y1="246" x2="375" y2="274" stroke="black"/>
<line x1="525" y1="246" x2="525" y2="274" stroke="black"/>
<polygon fill="white" points="458,246 592,246 592,268 458,268"/>
<line x1="458" y1="246" x2="592" y2="246" stroke="black"/>
<line x1="458" y1="268" x2="592" y2="268" stroke="black"/>
<line x1="458" y1="246" x2="458" y2="268" stroke="black"/>
<line x1="592" y1="246" x2="592" y2="268" stroke="black"/>
<polygon fill="white" points="507,253 542,253 542,262 507,262"/>
<text x="508" y="262" textLength="33" font-family="Helvetica" font-size="12" fill="black">
exit(0)
</text>
<line x1="75" y1="274" x2="75" y2="302" stroke="black"/>
<line x1="225" y1="274" x2="225" y2="302" stroke="black"/>
<line x1="375" y1="274" x2="375" y2="302" stroke="black"/>
<line x1="525" y1="274" x2="525" y2="302" stroke="black"/>
<polygon fill="white" points="308,274 592,274 592,296 308,296"/>
<line x1="308" y1="274" x2="592" y2="274" stroke="black"/>
<line x1="308" y1="296" x2="592" y2="296" stroke="black"/>
<line x1="308" y1="274" x2="308" y2="296" stroke="black"/>
<line x1="592" y1="274" x2="592" y2="296" stroke="black"/>
<polygon fill="white" points="402,281 496,281 496,290 402,290"/>
<text x="403" y="290" textLength="92" font-family="Helvetica" font-size="12" fill="black">
Process Finished
</text>
<line x1="75" y1="302" x2="75" y2="330" stroke="black"/>
<line x1="225" y1="302" x2="225" y2="330" stroke="black"/>
<line x1="375" y1="302" x2="375" y2="330" stroke="black"/>
<line x1="525" y1="302" x2="525" y2="330" stroke="black"/>
<polygon fill="white" points="8,302 292,302 292,324 8,324"/>
<line x1="8" y1="302" x2="292" y2="302" stroke="black"/>
<line x1="8" y1="324" x2="292" y2="324" stroke="black"/>
<line x1="8" y1="302" x2="8" y2="324" stroke="black"/>
<line x1="292" y1="302" x2="292" y2="324" stroke="black"/>
<polygon fill="white" points="106,309 193,309 193,318 106,318"/>
<text x="107" y="318" textLength="85" font-family="Helvetica" font-size="12" fill="black">
Process Started
</text>
<line x1="75" y1="330" x2="75" y2="358" stroke="black"/>
<line x1="225" y1="330" x2="225" y2="358" stroke="black"/>
<line x1="375" y1="330" x2="375" y2="358" stroke="black"/>
<line x1="525" y1="330" x2="525" y2="358" stroke="black"/>
<line x1="75" y1="341" x2="225" y2="341" stroke="black"/>
<line x1="225" y1="341" x2="215" y2="347" stroke="black"/>
<polygon fill="white" points="111,331 188,331 188,340 111,340"/>
<text x="112" y="340" textLength="75" font-family="Helvetica" font-size="12" fill="blue">
handleStartup
</text>
<line x1="75" y1="358" x2="75" y2="386" stroke="black"/>
<line x1="225" y1="358" x2="225" y2="386" stroke="black"/>
<line x1="375" y1="358" x2="375" y2="386" stroke="black"/>
<line x1="525" y1="358" x2="525" y2="386" stroke="black"/>
<polygon fill="white" points="158,358 292,358 292,380 158,380"/>
<line x1="158" y1="358" x2="292" y2="358" stroke="black"/>
<line x1="158" y1="380" x2="292" y2="380" stroke="black"/>
<line x1="158" y1="358" x2="158" y2="380" stroke="black"/>
<line x1="292" y1="358" x2="292" y2="380" stroke="black"/>
<polygon fill="white" points="167,365 282,365 282,374 167,374"/>
<text x="168" y="374" textLength="113" font-family="Helvetica" font-size="12" fill="black">
cleanup download dir
</text>
<line x1="75" y1="386" x2="75" y2="414" stroke="black"/>
<line x1="225" y1="386" x2="225" y2="414" stroke="black"/>
<line x1="375" y1="386" x2="375" y2="414" stroke="black"/>
<line x1="525" y1="386" x2="525" y2="414" stroke="black"/>
<polygon fill="white" points="8,386 292,386 292,408 8,408"/>
<line x1="8" y1="386" x2="292" y2="386" stroke="black"/>
<line x1="8" y1="408" x2="292" y2="408" stroke="black"/>
<line x1="8" y1="386" x2="8" y2="408" stroke="black"/>
<line x1="292" y1="386" x2="292" y2="408" stroke="black"/>
<polygon fill="white" points="92,393 207,393 207,402 92,402"/>
<text x="93" y="402" textLength="113" font-family="Helvetica" font-size="12" fill="black">
App Normal Lifecycle
</text>
<line x1="75" y1="414" x2="75" y2="431" stroke="black" stroke-dasharray="2,2"/>
<line x1="225" y1="414" x2="225" y2="431" stroke="black" stroke-dasharray="2,2"/>
<line x1="375" y1="414" x2="375" y2="431" stroke="black" stroke-dasharray="2,2"/>
<line x1="525" y1="414" x2="525" y2="431" stroke="black" stroke-dasharray="2,2"/>
<line x1="75" y1="425" x2="75" y2="431" stroke="black"/>
<line x1="225" y1="425" x2="225" y2="431" stroke="black"/>
<line x1="375" y1="425" x2="375" y2="431" stroke="black"/>
<line x1="525" y1="425" x2="525" y2="431" stroke="black"/>
</svg>
